<svg width="202" height="190" viewBox="0 0 202 190" fill="none" xmlns="http://www.w3.org/2000/svg">
<path fill-rule="evenodd" clip-rule="evenodd" d="M202 158.441C198.4 161.994 196.568 167.413 197.876 172.341C199.038 176.718 197.966 181.129 195.287 184.948C191.755 188.091 187.1 190 182 190H151.384C154.433 187.506 158.891 186.343 167.001 185.319C182.971 182.919 183.224 182.484 184.675 168.489C186.258 157.769 189.554 152.113 198.112 145.427C199.591 144.371 200.883 143.444 202 142.598V158.441ZM202 60.854C199.095 57.2255 197.763 53.0117 196.926 46.4278C194.91 31.8821 184.042 21.5254 173.355 24.3625C166.115 26.2844 157.832 21.4946 155.916 14.2787C153.088 3.62673 138.671 -0.638065 124.992 4.83228C115.015 8.95231 109.823 8.85912 100.506 4.34389C85.4495 -2.32621 77.8651 -0.312792 68.0996 12.9467C62.2483 21.4887 57.7868 24.1445 47.0795 25.5156C32.4888 27.5498 22.0848 38.404 24.9126 49.056C26.8282 56.2719 22.0111 64.5394 14.7715 66.4613C4.08436 69.2984 -0.216182 83.6819 5.2475 97.3124C9.36304 107.255 9.26111 112.431 4.71775 121.73C2.04029 128.326 0.163678 136.548 1.07586 139.985C1.98805 143.421 7.69584 149.63 13.2923 154.029C21.8493 159.85 24.5053 164.295 25.8629 174.969C26.6807 180.869 28.9547 186.079 32.0823 190H69.4464C65.0946 186.601 60.269 184.874 53.3192 183.865C39.2865 182.44 38.8506 182.188 36.4695 166.268C34.8181 153.097 32.7805 149.592 25.2068 146.085C13.8006 140.653 11.7938 133.093 19.0039 122.719C23.8411 115.917 23.8719 111.863 18.7731 99.6071C12.9445 84.6021 13.1981 84.1669 24.6766 75.9701C33.2349 69.2843 36.5307 63.6275 38.1135 52.9081C39.5649 38.9132 39.8184 38.478 55.7881 36.0777C68.9998 34.4096 72.5183 32.3721 76.0476 24.8142C78.4916 20.1193 82.7506 15.3104 85.8533 14.4867C88.956 13.663 95.0394 15.7264 99.4903 18.5909C106.303 23.4032 110.369 23.4273 122.669 18.323C137.726 12.4866 138.162 12.7387 146.364 24.1711C153.055 32.6941 158.722 35.9713 169.47 37.5321C183.502 38.9565 183.938 39.2086 186.32 55.1288C187.971 68.3001 190.008 71.8053 197.582 75.3121C199.088 76.0899 200.606 77.0531 202 78.1049V60.854ZM202 101.47C199.584 105.837 199.547 109.629 202 116.603V101.47ZM67.93 53.3483C75.161 52.4199 78.1749 50.6286 82.1298 44.8705C88.7298 35.9322 93.8523 34.5724 104.017 39.0603C110.307 42.0987 113.812 42.1593 120.552 39.379C129.791 35.6873 139.525 38.5548 141.43 45.7309C142.72 50.5921 148.312 53.8159 153.201 52.5179C160.419 50.6017 167.754 57.5754 169.11 67.3754C170.022 74.5673 171.814 77.5608 177.589 81.4791C186.554 88.0201 187.906 93.1128 183.366 103.239C180.294 109.506 180.223 112.994 182.998 119.691C186.682 128.873 183.771 138.567 176.553 140.483C171.664 141.781 168.407 147.354 169.698 152.215C171.603 159.391 164.573 166.709 154.719 168.086C147.488 169.014 144.474 170.805 140.519 176.563C133.919 185.502 128.797 186.862 118.632 182.374C112.342 179.335 108.837 179.275 102.098 182.055C92.8584 185.747 83.1243 182.879 81.2192 175.703C79.9287 170.842 74.3372 167.618 69.4476 168.916C62.2296 170.832 54.8949 163.859 53.5395 154.059C52.6273 146.867 50.8356 143.873 45.0597 139.955C41.2824 136.993 37.4307 132.811 36.8162 130.497C36.2016 128.182 37.4724 122.641 39.2832 118.195C42.3552 111.928 42.4262 108.44 39.6513 101.743C35.9675 92.5606 38.8777 82.8672 46.0957 80.9511C50.9853 79.653 54.2416 74.0804 52.9511 69.2192C51.0461 62.0431 58.0764 54.7252 67.93 53.3483ZM118.977 48.47C110.669 51.9144 107.924 51.8999 103.325 48.6603C100.321 46.7321 96.2134 45.3444 94.1179 45.9007C92.0223 46.457 89.1443 49.699 87.4919 52.8635C85.1054 57.9574 82.7285 59.3318 73.8063 60.4614C63.0212 62.0855 62.8499 62.3788 61.8639 71.8091C60.7905 79.0325 58.5624 82.8454 52.7804 87.3539C45.0257 92.8818 44.8543 93.1751 48.7839 103.283C52.2218 111.539 52.1992 114.271 48.9299 118.856C44.0567 125.849 45.4086 130.941 53.1087 134.597C58.2216 136.956 59.5961 139.317 60.7056 148.191C62.3068 158.917 62.6011 159.087 72.0764 160.041C79.3334 161.088 83.1591 163.294 87.6739 169.034C93.2074 176.733 93.5016 176.903 103.672 172.964C111.98 169.52 114.725 169.534 119.324 172.774C126.339 177.602 131.461 176.242 135.157 168.57C137.544 163.477 139.921 162.102 148.843 160.973C159.628 159.348 159.799 159.055 160.785 149.625C161.859 142.401 164.087 138.589 169.869 134.08C177.623 128.552 177.795 128.259 173.865 118.151C170.427 109.895 170.45 107.163 173.719 102.578C175.666 99.5836 177.072 95.4932 176.519 93.4098C175.966 91.3264 172.716 88.4722 169.54 86.8373C164.428 84.4776 163.053 82.1167 161.943 73.2426C160.342 62.5167 160.048 62.347 150.573 61.3932C143.316 60.3461 139.49 58.1403 134.975 52.4004C129.442 44.7007 129.147 44.531 118.977 48.47Z" fill="#CD2653" fill-opacity="0.2"/>
</svg>
